<?xml version="1.0" standalone="no"?>
<!DOCTYPE svg PUBLIC "-//W3C//DTD SVG 20010904//EN"
 "http://www.w3.org/TR/2001/REC-SVG-20010904/DTD/svg10.dtd">
<svg version="1.0" xmlns="http://www.w3.org/2000/svg"
 width="198.000000pt" height="38.000000pt" viewBox="0 0 198.000000 38.000000"
 preserveAspectRatio="xMidYMid meet">

<g transform="translate(0.000000,38.000000) scale(0.100000,-0.100000)"
fill="#000000" stroke="none">
<path d="M380 295 c-16 -19 -5 -32 14 -16 11 9 16 9 22 0 4 -7 -3 -20 -19 -31
-38 -28 -35 -48 8 -48 19 0 35 5 35 10 0 6 -10 10 -22 10 l-21 0 23 25 c19 21
22 30 14 43 -15 23 -38 26 -54 7z"/>
<path d="M1752 294 c-19 -13 -22 -24 -22 -89 0 -81 13 -105 55 -105 42 0 55
24 55 105 0 65 -3 76 -22 89 -12 9 -27 16 -33 16 -6 0 -21 -7 -33 -16z m58
-89 c0 -61 -3 -77 -16 -82 -25 -9 -44 24 -44 78 0 63 7 79 36 79 23 0 24 -3
24 -75z"/>
<path d="M740 197 l0 -93 42 -1 c53 -3 78 18 78 63 0 44 -38 73 -75 56 -24
-11 -25 -10 -25 28 0 22 -4 40 -10 40 -6 0 -10 -38 -10 -93z m95 -32 c0 -55
-65 -59 -73 -5 -5 30 22 51 51 41 15 -6 22 -17 22 -36z"/>
<path d="M106 224 c-9 -8 -16 -20 -16 -25 0 -15 27 -10 34 7 7 19 51 15 51 -6
0 -8 -13 -17 -31 -20 -42 -9 -54 -18 -54 -39 0 -28 22 -40 68 -38 l42 1 0 56
c0 31 -5 61 -12 68 -17 17 -64 15 -82 -4z m74 -72 c0 -14 -23 -32 -42 -32 -18
0 -25 20 -11 33 9 10 53 9 53 -1z"/>
<path d="M244 218 c28 -40 29 -49 7 -78 -11 -16 -21 -32 -21 -35 0 -14 23 -2
44 21 l22 26 17 -26 c10 -14 25 -26 33 -26 13 0 11 7 -10 35 l-27 35 21 31
c28 39 16 53 -15 17 l-23 -27 -16 24 c-9 14 -24 25 -32 25 -15 0 -15 -2 0 -22z"/>
<path d="M570 216 c0 -18 -7 -26 -22 -29 l-23 -4 23 -8 c12 -4 22 -16 22 -26
0 -11 5 -19 10 -19 6 0 10 9 10 20 0 13 7 20 19 20 29 0 35 18 9 22 -15 2 -24
11 -26 26 -4 30 -22 28 -22 -2z"/>
<path d="M890 235 c0 -3 9 -19 21 -34 l21 -29 -23 -31 c-28 -39 -15 -55 16
-19 l22 26 26 -26 c34 -33 46 -22 18 16 -26 37 -26 44 -1 67 11 10 20 22 20
27 0 17 -28 7 -43 -14 l-15 -23 -24 23 c-23 21 -38 28 -38 17z"/>
<path d="M1140 215 c0 -18 -5 -25 -20 -25 -11 0 -20 -4 -20 -10 0 -5 9 -10 20
-10 13 0 20 -7 20 -20 0 -11 5 -20 10 -20 6 0 10 9 10 20 0 13 7 20 20 20 11
0 20 5 20 10 0 6 -9 10 -20 10 -15 0 -20 7 -20 25 0 14 -4 25 -10 25 -5 0 -10
-11 -10 -25z"/>
<path d="M1319 222 c-46 -38 -17 -122 43 -122 27 0 68 30 68 50 0 17 -25 11
-38 -10 -15 -24 -35 -26 -56 -4 -20 20 -20 48 0 68 20 21 30 20 54 -4 22 -22
40 -26 40 -10 0 19 -40 50 -64 50 -13 0 -34 -8 -47 -18z"/>
<path d="M1520 210 c0 -5 25 -10 55 -10 30 0 55 5 55 10 0 6 -25 10 -55 10
-30 0 -55 -4 -55 -10z"/>
<path d="M1520 160 c0 -5 25 -10 55 -10 30 0 55 5 55 10 0 6 -25 10 -55 10
-30 0 -55 -4 -55 -10z"/>
</g>
</svg>
